<svg width="100" height="13" viewBox="0 0 100 13" fill="none" xmlns="http://www.w3.org/2000/svg">
<path d="M44.046 0H41.1945C40.6242 0 40.1562 0.467942 40.1562 1.03825V11.9618C40.1562 12.5321 40.6169 13 41.1945 13H58.8081C59.3784 13 59.8464 12.5394 59.8464 11.9618V8.518C59.8464 8.03543 59.51 7.61136 59.0348 7.509C53.7412 6.31721 48.8205 3.82396 44.7333 0.255906C44.5432 0.087739 44.3019 0 44.0533 0H44.046Z" fill="#F2F2F2"/>
<path d="M50.8952 11.0626H45.375V7.42871H50.8952V11.0626ZM45.8356 10.6019H50.4346V7.88934H45.8356V10.6019Z" fill="#232323"/>
<path d="M45.1756 9.60066H43.918V5.9668H49.4382V7.22439H48.9776V6.42743H44.3786V9.14003H45.1756V9.60066Z" fill="#232323"/>
</svg>
