<svg width="100" height="57" viewBox="0 0 100 57" fill="none" xmlns="http://www.w3.org/2000/svg">
<g clip-path="url(#clip0_100_1914)">
<path d="M50.001 0C65.7117 0 78.4482 12.7365 78.4482 28.4473C78.448 44.1578 65.7115 56.8936 50.001 56.8936C34.2906 56.8933 21.555 44.1576 21.5547 28.4473C21.5547 12.7367 34.2905 0.000255654 50.001 0ZM50.0068 18.667C44.6028 18.667 40.2217 23.0481 40.2217 28.4521C40.2218 33.8561 44.6028 38.2373 50.0068 38.2373C55.4107 38.2372 59.7919 33.8561 59.792 28.4521C59.792 23.0481 55.4108 18.6671 50.0068 18.667Z" fill="#F2F2F2"/>
<path d="M35.8616 28.9291H26.5437C26.3955 28.9291 26.2734 28.8071 26.2734 28.6589C26.2734 28.5107 26.3955 28.3887 26.5437 28.3887H35.8616C36.0098 28.3887 36.1318 28.5107 36.1318 28.6589C36.1318 28.8071 36.0098 28.9291 35.8616 28.9291Z" fill="#232323"/>
<path d="M50.4818 43.0085L50.4818 52.3265C50.4818 52.4746 50.3598 52.5967 50.2116 52.5967C50.0634 52.5967 49.9414 52.4746 49.9414 52.3265L49.9414 43.0085C49.9414 42.8604 50.0634 42.7383 50.2116 42.7383C50.3598 42.7383 50.4818 42.8604 50.4818 43.0085Z" fill="#232323"/>
<path d="M73.8811 28.9291H64.5632C64.415 28.9291 64.293 28.8071 64.293 28.6589C64.293 28.5107 64.415 28.3887 64.5632 28.3887H73.8811C74.0293 28.3887 74.1513 28.5107 74.1513 28.6589C74.1513 28.8071 74.0293 28.9291 73.8811 28.9291Z" fill="#232323"/>
<path d="M50.4818 4.989L50.4818 14.3069C50.4818 14.4551 50.3598 14.5771 50.2116 14.5771C50.0634 14.5771 49.9414 14.4551 49.9414 14.3069L49.9414 4.989C49.9414 4.84082 50.0634 4.71879 50.2116 4.71879C50.3598 4.71879 50.4818 4.84082 50.4818 4.989Z" fill="#232323"/>
<circle cx="50.0085" cy="28.4519" r="8.73118" fill="#F2F2F2"/>
</g>
<defs>
<clipPath id="clip0_100_1914">
<rect width="100" height="56.8936" fill="white"/>
</clipPath>
</defs>
</svg>
