<svg width="100" height="8" viewBox="0 0 100 8" fill="none" xmlns="http://www.w3.org/2000/svg">
<path d="M58.8591 0H41.1392C40.1174 0 39.2891 0.828346 39.2891 1.85016V6.14984C39.2891 7.17165 40.1174 8 41.1392 8H58.8591C59.8809 8 60.7093 7.17165 60.7093 6.14984V1.85016C60.7093 0.828346 59.8809 0 58.8591 0Z" fill="#F2F2F2"/>
<path d="M47.7386 3.58803H47.1914V1.20801H49.5714V1.75524H47.7386V3.58803Z" fill="#232323"/>
<path d="M52.798 3.58803H52.2508V1.75524H50.418V1.20801H52.798V3.58803Z" fill="#232323"/>
<path d="M52.798 6.80102H50.418V6.25379H52.2508V4.42969H52.798V6.80102Z" fill="#232323"/>
<path d="M49.5714 6.80102H47.1914V4.42969H47.7386V6.25379H49.5714V6.80102Z" fill="#232323"/>
</svg>
