<svg width="100" height="8" viewBox="0 0 100 8" fill="none" xmlns="http://www.w3.org/2000/svg">
<path d="M58.8591 0H41.1392C40.1174 0 39.2891 0.828346 39.2891 1.85016V6.14984C39.2891 7.17165 40.1174 8 41.1392 8H58.8591C59.8809 8 60.7093 7.17165 60.7093 6.14984V1.85016C60.7093 0.828346 59.8809 0 58.8591 0Z" fill="#F2F2F2"/>
<path d="M50.8663 1.72949V2.32884C51.4656 2.64154 51.8739 3.26695 51.8739 3.98791C51.8739 5.02157 51.0313 5.86413 49.9977 5.86413C48.964 5.86413 48.1214 5.02157 48.1214 3.98791C48.1214 3.26695 48.5384 2.64154 49.1291 2.32884V1.72949C48.217 2.07694 47.5742 2.95425 47.5742 3.98791C47.5742 5.32558 48.66 6.41136 49.9977 6.41136C51.3353 6.41136 52.4211 5.32558 52.4211 3.98791C52.4211 2.95425 51.7697 2.07694 50.8663 1.72949Z" fill="#232323"/>
<path d="M50.266 1.04297H49.7188V2.82364H50.266V1.04297Z" fill="#232323"/>
</svg>
