<svg width="100" height="35" viewBox="0 0 100 35" fill="none" xmlns="http://www.w3.org/2000/svg">
<g clip-path="url(#clip0_100_1907)">
<path d="M58.1359 34.9056C62.7539 34.9056 67.176 33.0709 70.4376 29.8093C73.6993 26.5476 75.534 22.1177 75.534 17.5075C75.534 12.8973 73.6993 8.46741 70.4376 5.20576C67.176 1.92843 62.7539 0.09375 58.1359 0.09375H41.8669C37.2488 0.09375 32.8268 1.92843 29.5651 5.19792C26.2956 8.45957 24.4609 12.8816 24.4609 17.4997C24.4609 22.1177 26.2956 26.5398 29.5573 29.8014C32.8189 33.0631 37.2488 34.8977 41.859 34.8977H58.1281L58.1359 34.9056Z" fill="#F2F2F2"/>
<path d="M71.2222 17.7508H62.8407C62.7074 17.7508 62.5977 17.641 62.5977 17.5077C62.5977 17.3744 62.7074 17.2646 62.8407 17.2646H71.2222C71.3555 17.2646 71.4653 17.3744 71.4653 17.5077C71.4653 17.641 71.3555 17.7508 71.2222 17.7508Z" fill="#232323"/>
<path d="M37.1676 17.7508H28.7782C28.6449 17.7508 28.5352 17.641 28.5352 17.5077C28.5352 17.3744 28.6449 17.2646 28.7782 17.2646H37.1597C37.293 17.2646 37.4028 17.3744 37.4028 17.5077C37.4028 17.641 37.293 17.7508 37.1597 17.7508H37.1676Z" fill="#232323"/>
<path d="M50.0048 10.8276C49.8715 10.8276 49.7617 10.7178 49.7617 10.5845V2.1952C49.7617 2.06192 49.8715 1.95215 50.0048 1.95215C50.1381 1.95215 50.2478 2.06192 50.2478 2.1952V10.5767C50.2478 10.71 50.1381 10.8198 50.0048 10.8198V10.8276Z" fill="#232323"/>
<path d="M50.0048 33.0483C49.8715 33.0483 49.7617 32.9385 49.7617 32.8052V24.4237C49.7617 24.2904 49.8715 24.1807 50.0048 24.1807C50.1381 24.1807 50.2478 24.2904 50.2478 24.4237V32.8052C50.2478 32.9385 50.1381 33.0483 50.0048 33.0483Z" fill="#232323"/>
</g>
<defs>
<clipPath id="clip0_100_1907">
<rect width="51.269" height="35" fill="white" transform="translate(24.3672)"/>
</clipPath>
</defs>
</svg>
