<svg width="18" height="20" viewBox="0 0 18 20" fill="none" xmlns="http://www.w3.org/2000/svg">
<g clip-path="url(#clip0_71_287)">
<path d="M14.4772 10.6358C14.4984 9.09193 15.3817 7.63106 16.7828 6.8224C15.8989 5.63731 14.4184 4.88593 12.878 4.84069C11.2351 4.6788 9.64234 5.76357 8.80514 5.76357C7.95174 5.76357 6.66274 4.85676 5.2747 4.88357C3.46544 4.93844 1.77877 5.90408 0.898527 7.38897C-0.993639 10.4643 0.417746 14.984 2.23028 17.4699C3.13713 18.6872 4.19698 20.0469 5.58377 19.9987C6.94083 19.9458 7.44766 19.1863 9.08575 19.1863C10.7086 19.1863 11.1841 19.9987 12.5991 19.968C14.0553 19.9458 14.9727 18.7453 15.8478 17.5165C16.4993 16.6492 17.0007 15.6906 17.3333 14.6762C15.622 13.9968 14.4792 12.3801 14.4772 10.6358Z" fill="#5C5C5C"/>
<path d="M11.805 3.20595C12.5989 2.31119 12.9901 1.16113 12.8954 0C11.6824 0.1196 10.5619 0.663834 9.75716 1.52426C8.97027 2.36494 8.56077 3.49477 8.63819 4.61152C9.85164 4.62325 11.0446 4.09376 11.805 3.20595Z" fill="#5C5C5C"/>
</g>
<defs>
<clipPath id="clip0_71_287">
<rect width="18" height="20" fill="white"/>
</clipPath>
</defs>
</svg>
