<?xml version="1.0" encoding="UTF-8" standalone="no"?>
<svg
   width="100"
   height="100"
   viewBox="0 0 100 100"
   fill="none"
   version="1.1"
   id="svg2"
   sodipodi:docname="apple-logo.svg"
   inkscape:export-filename="apple-logo.png"
   inkscape:export-xdpi="96"
   inkscape:export-ydpi="96"
   inkscape:version="1.4 (e7c3feb1, 2024-10-09)"
   xmlns:inkscape="http://www.inkscape.org/namespaces/inkscape"
   xmlns:sodipodi="http://sodipodi.sourceforge.net/DTD/sodipodi-0.dtd"
   xmlns="http://www.w3.org/2000/svg"
   xmlns:svg="http://www.w3.org/2000/svg">
  <sodipodi:namedview
     id="namedview2"
     pagecolor="#505050"
     bordercolor="#eeeeee"
     borderopacity="1"
     inkscape:showpageshadow="0"
     inkscape:pageopacity="0"
     inkscape:pagecheckerboard="0"
     inkscape:deskcolor="#505050"
     inkscape:zoom="6.5995851"
     inkscape:cx="80.838415"
     inkscape:cy="35.759824"
     inkscape:window-width="2560"
     inkscape:window-height="1381"
     inkscape:window-x="0"
     inkscape:window-y="31"
     inkscape:window-maximized="1"
     inkscape:current-layer="svg2" />
  <g
     clip-path="url(#clip0_71_287)"
     id="g2"
     transform="matrix(4,0,0,4,15.512915,9.2084198)">
    <path
       d="M 14.4772,10.6358 C 14.4984,9.09193 15.3817,7.63106 16.7828,6.8224 15.8989,5.63731 14.4184,4.88593 12.878,4.84069 11.2351,4.6788 9.64234,5.76357 8.80514,5.76357 c -0.8534,0 -2.1424,-0.90681 -3.53044,-0.88 C 3.46544,4.93844 1.77877,5.90408 0.898527,7.38897 -0.993639,10.4643 0.417746,14.984 2.23028,17.4699 c 0.90685,1.2173 1.9667,2.577 3.35349,2.5288 1.35706,-0.0529 1.86389,-0.8124 3.50198,-0.8124 1.62285,0 2.09835,0.8124 3.51335,0.7817 1.4562,-0.0222 2.3736,-1.2227 3.2487,-2.4515 0.6515,-0.8673 1.1529,-1.8259 1.4855,-2.8403 -1.7113,-0.6794 -2.8541,-2.2961 -2.8561,-4.0404 z"
       fill="#5c5c5c"
       id="path1" />
    <path
       d="M 11.805,3.20595 C 12.5989,2.31119 12.9901,1.16113 12.8954,0 11.6824,0.1196 10.5619,0.663834 9.75716,1.52426 8.97027,2.36494 8.56077,3.49477 8.63819,4.61152 9.85164,4.62325 11.0446,4.09376 11.805,3.20595 Z"
       fill="#5c5c5c"
       id="path2" />
  </g>
  <defs
     id="defs2">
    <clipPath
       id="clip0_71_287">
      <rect
         width="18"
         height="20"
         fill="#ffffff"
         id="rect2"
         x="0"
         y="0" />
    </clipPath>
  </defs>
</svg>
